<?xml version="1.0" encoding="UTF-8" standalone="no"?>
<!DOCTYPE svg PUBLIC "-//W3C//DTD SVG 1.1//EN" "http://www.w3.org/Graphics/SVG/1.1/DTD/svg11.dtd">
<svg width="65.52" height="71.28" viewBox="0.00 0.00 273.00 297.00" xmlns="http://www.w3.org/2000/svg" xmlns:xlink="http://www.w3.org/1999/xlink">
<g stroke-linecap="round" transform="translate(-505.00, -206.00)" id="레이어_5_복사_2">
<path d="M736.03,239.66 C736.03,239.66 738.06,239.18 738.06,239.18 C739.89,240.93 741.62,243.05 742.23,244.63 C742.50,245.33 745.76,257.78 747.18,265.88 C748.24,272.33 743.44,284.82 742.92,286.04 C742.07,287.97 737.39,291.85 735.99,294.09 C735.15,295.46 733.36,300.09 733.19,300.47 C732.75,293.34 731.71,279.56 731.11,272.91 C730.62,266.07 727.56,253.51 726.19,247.25 C725.89,246.15 725.33,244.58 724.81,244.12 C723.40,242.91 716.96,239.69 716.22,239.55 C715.39,239.41 710.06,242.04 708.60,243.14 C708.02,243.59 702.86,248.26 700.77,249.90 C698.50,252.04 697.08,255.63 696.66,256.65 C696.66,256.65 691.05,257.99 691.05,257.99 C691.05,257.99 709.54,264.20 709.54,264.20 C707.74,266.76 697.51,283.27 693.38,288.41 C691.62,290.58 682.47,302.48 679.97,304.93 C680.08,301.87 680.31,295.19 679.52,291.97 C679.03,290.13 677.39,288.19 675.35,286.81 C670.56,283.72 655.05,278.29 647.94,276.88 C644.86,276.29 633.05,276.14 631.67,276.13 C631.67,276.13 650.88,272.48 650.88,272.48 C646.33,271.87 633.98,273.64 623.35,274.58 C618.03,275.12 614.84,275.75 613.19,276.61 C613.95,276.88 630.82,274.54 638.42,273.50 C649.11,272.23 661.02,271.81 663.29,271.74 C663.23,271.74 647.94,276.93 638.63,279.11 C633.95,280.22 617.80,284.93 611.59,286.94 C599.88,290.92 592.24,293.15 588.33,292.09 C587.49,291.84 581.85,289.23 579.32,287.52 C577.62,286.35 576.09,284.49 575.05,282.41 C573.23,278.66 571.68,269.93 572.24,268.55 C572.93,267.01 579.73,263.06 579.84,263.04 C579.97,263.02 582.23,263.34 584.59,263.61 C584.64,262.02 584.81,258.97 584.67,258.42 C584.31,257.10 580.55,253.31 578.06,250.51 C575.09,247.20 565.99,240.61 563.44,239.38 C561.92,238.69 554.30,237.63 551.69,238.20 C549.07,238.80 544.18,242.43 543.42,244.15 C542.01,247.47 539.65,254.30 539.36,255.83 C539.03,257.58 538.70,265.41 539.01,266.51 C539.71,268.92 544.20,275.68 544.68,276.47 C545.17,277.31 548.11,283.04 550.27,285.69 C553.97,290.28 558.85,296.36 559.11,297.00 C556.96,297.12 555.65,297.01 554.59,296.40 C552.49,295.17 546.21,289.01 545.06,287.99 C541.64,284.96 537.91,282.66 537.04,282.98 C537.78,285.26 543.99,292.40 545.11,293.67 C547.85,296.74 552.83,299.44 554.16,300.28 C556.74,301.93 561.35,306.37 561.54,306.49 C562.38,307.01 584.45,316.54 585.90,317.07 C589.05,318.20 609.77,319.51 610.21,319.55 C612.59,319.76 633.24,322.40 642.40,323.58 C653.64,325.09 662.66,327.55 669.54,329.19 C674.17,330.30 676.53,331.11 679.64,332.86 C681.26,333.78 681.95,334.21 681.92,334.27 C679.20,334.27 675.54,333.65 672.59,332.61 C665.72,330.14 652.34,322.60 646.67,318.73 C644.75,317.41 635.49,309.75 631.74,305.43 C632.04,304.35 633.42,303.60 636.00,303.29 C638.47,303.00 657.43,305.19 662.38,306.27 C665.13,306.88 686.52,313.02 688.56,313.70 C693.48,315.36 699.07,318.29 700.40,319.41 C701.86,320.67 703.38,322.68 703.42,323.54 C703.39,325.55 700.95,327.31 698.71,328.48 C698.73,328.54 701.06,331.56 702.35,335.45 C702.40,335.59 703.74,340.99 704.25,342.12 C704.72,343.13 706.44,345.24 707.28,345.98 C708.31,346.83 710.40,347.38 711.84,347.14 C712.93,346.94 718.70,343.30 719.47,341.77 C720.22,340.14 718.79,335.63 716.26,329.79 C715.73,328.58 715.18,327.28 715.19,327.30 C720.95,346.02 725.03,363.06 727.27,367.27 C729.56,371.50 738.12,382.14 739.56,384.74 C742.00,389.27 744.75,402.29 744.97,406.28 C745.40,413.18 746.28,427.37 745.21,430.70 C743.27,436.50 739.06,443.06 732.49,451.64 C730.86,453.72 727.65,456.28 724.38,457.90 C720.40,459.83 705.58,462.37 700.09,464.09 C694.13,465.70 681.03,469.48 677.98,469.67 C674.09,469.90 661.21,472.64 655.25,472.62 C654.48,472.61 638.14,472.50 629.45,471.44 C623.46,470.63 605.33,467.99 605.10,467.99 C597.35,468.03 580.24,465.10 577.64,464.47 C573.99,463.78 564.53,460.59 558.82,457.23 C554.96,454.94 548.14,451.41 546.51,450.69 C542.76,449.07 540.80,447.31 539.20,444.46 C538.42,443.03 535.47,436.13 535.42,435.98 C534.14,431.97 534.09,403.03 534.33,402.02 C534.51,401.27 538.26,393.18 538.93,390.65 C539.71,387.70 541.42,383.31 542.45,381.76 C543.49,380.22 548.27,374.56 549.16,373.31 C552.61,367.64 559.92,356.48 561.30,351.93 C562.31,348.51 562.79,339.43 563.69,337.30 C563.93,336.74 564.50,335.76 565.38,334.38 C565.36,334.58 574.34,350.62 576.56,357.95 C578.52,364.51 580.89,374.78 582.54,385.03 C584.30,396.78 586.44,421.53 587.20,426.22 C587.62,428.61 588.50,430.96 589.52,432.06 C591.37,433.96 596.33,435.58 601.15,436.51 C607.53,437.64 628.17,438.64 631.58,438.62 C636.13,438.59 650.41,436.40 656.81,434.18 C659.65,433.17 664.63,430.63 667.46,428.52 C673.67,423.86 680.85,415.93 686.24,408.10 C688.13,405.34 689.22,402.55 689.48,399.72 C689.69,396.79 688.25,391.66 686.76,388.59 C683.86,382.71 676.05,371.48 672.22,367.51 C669.73,364.96 655.56,353.63 653.24,352.12 C650.16,350.15 644.71,348.09 641.97,347.12 C635.31,344.84 628.92,345.30 628.97,345.38 C638.27,346.80 647.07,349.01 656.71,352.36 C664.21,355.01 675.70,360.36 681.58,363.42 C686.64,366.07 698.12,374.00 701.40,378.03 C703.72,380.96 706.31,387.00 707.07,390.69 C707.56,393.19 707.76,398.69 707.73,402.95 C707.67,406.13 706.57,412.78 705.43,415.82 C704.19,418.97 699.38,425.51 696.87,427.63 C694.80,429.33 686.50,434.10 684.19,434.93 C681.50,435.87 675.66,436.58 671.10,436.15 C665.48,435.57 653.69,431.40 647.98,428.58 C643.55,426.38 629.77,417.53 625.99,414.36 C621.37,410.46 612.67,401.44 609.63,397.01 C607.41,393.74 605.32,389.51 604.01,385.64 C602.69,381.64 601.27,375.41 601.13,372.42 C601.03,369.62 601.07,365.36 601.22,361.26 C601.35,358.44 602.24,354.60 603.38,352.15 C604.49,349.86 607.48,347.01 609.21,346.29 C611.11,345.53 618.17,345.05 620.65,345.23 C623.46,345.49 628.50,347.29 631.25,349.17 C635.54,352.20 640.65,357.98 643.23,362.93 C646.05,368.42 649.58,378.83 649.79,383.30 C649.86,385.14 649.12,388.66 648.29,390.60 C646.85,393.82 641.93,398.43 639.86,399.20 C637.69,399.96 628.69,400.21 626.38,399.42 C623.37,398.35 611.13,388.10 605.94,382.05 C602.35,377.83 597.15,367.95 595.88,362.73 C595.48,361.09 595.52,359.70 595.95,357.43 C595.95,357.43 598.36,356.16 598.36,356.16 C601.80,358.30 604.23,360.41 605.43,362.78 C606.77,365.52 608.36,369.96 608.84,372.08 C609.56,375.44 608.87,381.69 608.32,384.18 C607.58,387.32 605.38,392.17 603.45,394.80 C601.67,397.17 597.94,400.68 595.99,401.88 C593.81,403.16 588.62,404.76 586.36,404.83 C581.87,404.92 572.91,402.98 568.13,400.84 C566.76,400.22 564.10,399.00 562.79,398.39 C562.41,398.68 562.48,399.34 563.20,401.02 C565.85,407.08 575.96,423.89 576.58,424.98 C578.25,427.92 580.99,434.40 580.99,434.99 C580.98,435.36 580.80,436.05 580.44,437.07 C577.31,437.19 575.39,437.08 573.84,436.50 C570.88,435.38 565.55,432.49 563.16,431.17 C563.16,431.17 565.93,432.96 565.93,432.96" fill="none" stroke="rgb(170, 255, 153)" stroke-width="42.42" stroke-opacity="1.00" stroke-linejoin="round"/>
</g>
<g stroke-linecap="round" transform="translate(-508.00, 62.00)" id="레이어_2_복사_3">
<path d="M682.66,-8.70 C682.99,-8.47 683.31,-8.24 683.64,-8.01 C686.47,-6.02 691.90,-2.22 695.77,0.97 C703.22,7.25 713.11,16.21 718.21,22.15 C722.21,26.96 730.36,38.92 733.78,45.28 C736.81,50.96 739.89,59.43 741.84,63.92 C744.67,70.27 752.83,88.56 753.61,89.99 C757.76,97.78 763.62,110.64 767.27,119.95 C770.31,127.92 773.37,140.57 773.65,146.41 C773.96,153.42 771.99,168.55 769.63,175.43 C768.54,178.58 765.25,184.97 763.25,187.79 C759.16,193.50 746.14,206.07 741.56,209.59 C738.45,211.92 733.44,214.75 730.36,215.98 C724.24,218.36 706.96,223.36 701.14,224.78 C693.84,226.40 682.82,228.08 678.57,228.58" fill="none" stroke="rgb(170, 255, 153)" stroke-width="15.00" stroke-opacity="1.00" stroke-linejoin="round"/>
<path d="M683.80,222.58 C679.91,224.47 675.98,226.08 672.35,226.47 C665.20,227.19 656.46,226.49 644.36,224.84 C636.77,223.81 623.88,222.13 617.09,221.63 C613.21,221.30 606.09,220.69 602.86,220.40" fill="none" stroke="rgb(170, 255, 153)" stroke-width="15.00" stroke-opacity="1.00" stroke-linejoin="round"/>
<path d="M600.15,220.08 C597.30,220.71 591.50,221.26 589.28,221.23 C586.06,221.17 578.43,220.13 574.86,219.15 C567.60,217.13 554.10,211.12 547.89,207.05 C542.26,203.33 532.05,193.68 527.74,187.98 C524.49,183.65 518.52,173.22 517.86,170.97 C517.49,169.66 516.95,166.38 516.65,164.17" fill="none" stroke="rgb(170, 255, 153)" stroke-width="15.00" stroke-opacity="1.00" stroke-linejoin="round"/>
<path d="M606.18,-10.65 C598.83,-6.74 591.16,-0.67 584.83,5.60 C578.86,11.59 573.17,19.06 566.75,28.31 C558.36,40.79 550.27,57.73 549.41,59.85 C547.94,63.53 547.40,64.39 544.21,68.05 C539.34,73.63 531.70,85.32 527.97,92.51 C525.53,97.22 519.47,111.77 518.18,117.95 C517.85,119.52 516.27,129.45 515.65,133.53 C514.84,138.85 514.66,141.13 515.08,145.09 C515.91,152.68 517.62,159.66 517.85,160.57" fill="none" stroke="rgb(170, 255, 153)" stroke-width="15.00" stroke-opacity="1.00" stroke-linejoin="round"/>
<path d="M672.21,-11.96 C669.01,-14.69 661.62,-18.22 659.56,-18.63 C651.99,-19.83 642.44,-20.47 634.48,-19.61 C630.42,-19.14 624.56,-17.47 621.81,-16.07 C616.85,-13.49 609.24,-6.87 606.98,-4.89" fill="none" stroke="rgb(170, 255, 153)" stroke-width="15.00" stroke-opacity="1.00" stroke-linejoin="round"/>
<path d="M609.73,-11.80 C609.57,-16.64 607.90,-22.89 605.94,-25.73 C604.09,-28.37 598.80,-34.75 597.20,-36.20 C593.73,-39.30 579.11,-46.20 573.59,-47.67 C570.65,-48.44 564.21,-49.54 560.94,-49.64 C557.25,-49.72 551.82,-48.73 547.35,-47.21 C542.54,-45.55 533.35,-39.95 529.98,-36.04 C527.02,-32.55 521.32,-18.76 519.22,-10.81 C518.31,-7.32 517.32,-1.95 517.28,0.94 C517.25,5.93 518.80,18.27 520.69,25.40 C521.90,29.80 524.50,34.88 527.45,38.69 C529.66,41.49 531.85,43.74 532.55,44.40" fill="none" stroke="rgb(170, 255, 153)" stroke-width="15.00" stroke-opacity="1.00" stroke-linejoin="round"/>
<path d="M535.70,48.21 C536.62,49.07 538.92,51.24 540.32,52.55 C543.11,55.14 546.91,58.14 547.42,58.40 C547.61,58.50 547.88,58.57 548.23,58.62" fill="none" stroke="rgb(170, 255, 153)" stroke-width="15.00" stroke-opacity="1.00" stroke-linejoin="round"/>
<path d="M680.31,-26.82 C682.13,-30.55 684.19,-34.15 686.90,-36.87 C692.08,-42.01 702.40,-48.48 708.42,-51.14 C711.51,-52.49 718.20,-54.23 721.12,-54.65 C723.76,-55.01 729.33,-54.50 731.48,-53.96 C734.40,-53.22 740.44,-50.56 744.10,-48.51 C747.70,-46.47 759.15,-35.50 762.10,-30.90 C764.99,-26.30 772.14,-9.91 772.89,-5.88 C773.76,-1.01 773.39,10.91 772.12,17.79 C771.38,21.71 769.93,26.82 768.63,30.05 C767.46,32.91 763.74,39.44 761.40,42.50 C757.04,48.12 748.91,54.14 746.69,55.75" fill="none" stroke="rgb(170, 255, 153)" stroke-width="15.00" stroke-opacity="1.00" stroke-linejoin="round"/>
<path d="M680.94,-27.77 C680.22,-26.99 679.06,-25.60 678.37,-24.59 C677.51,-23.29 675.48,-19.57 674.96,-18.29 C674.51,-17.15 674.15,-15.47 673.94,-14.02 C673.90,-13.76 673.84,-13.37 673.76,-12.87" fill="none" stroke="rgb(170, 255, 153)" stroke-width="15.00" stroke-opacity="1.00" stroke-linejoin="round"/>
</g>
<g stroke-linecap="round" transform="translate(-505.00, -206.00)" id="레이어_3_복사_2">
<path d="M644.47,351.50 C646.11,350.98 649.03,350.24 650.18,350.43 C652.34,350.82 657.90,355.18 659.69,357.59 C661.78,360.45 664.77,366.76 665.08,369.33 C665.32,371.73 664.61,377.06 663.34,380.14 C662.14,382.94 658.65,387.47 656.00,389.57 C653.13,391.79 650.05,393.00 647.47,393.05 C644.66,393.07 638.86,391.80 636.02,390.04 C633.27,388.30 628.34,383.50 627.23,381.48 C626.26,379.63 625.04,374.39 625.08,371.82 C625.14,369.28 626.23,365.42 627.62,362.97 C629.08,360.45 632.61,356.23 634.70,354.55 C636.08,353.47 640.71,350.41 643.51,349.10 C645.55,348.19 646.98,348.38 648.95,349.77 C649.56,350.21 650.30,350.74 651.18,351.35" fill="none" stroke="rgb(25, 25, 25)" stroke-width="10.00" stroke-opacity="1.00" stroke-linejoin="round"/>
<path d="M644.70,353.86 C646.71,354.07 651.14,356.96 652.99,359.51 C655.22,362.67 658.52,368.85 659.37,372.03 C659.89,374.09 659.43,379.56 658.77,381.06 C657.94,382.83 653.84,385.98 652.49,386.16 C650.77,386.36 648.38,385.88 647.18,385.11 C644.90,383.57 641.78,380.03 640.70,377.91 C640.00,376.48 638.43,371.28 639.29,368.33 C639.80,366.72 641.94,364.65 643.33,364.32 C644.71,364.04 646.81,364.35 647.90,364.92 C650.13,366.18 653.21,369.43 653.98,371.82 C654.35,373.06 654.56,374.75 654.61,376.58 C654.61,378.00 653.85,380.73 653.01,382.28 C652.11,383.86 647.33,386.49 645.86,386.15 C644.23,385.73 642.01,384.24 641.03,382.92 C639.22,380.37 637.68,376.29 637.67,373.84 C637.69,372.72 638.33,369.21 638.82,367.85 C639.36,366.44 641.41,364.47 642.66,364.08 C644.20,363.69 646.60,364.98 647.54,366.80 C648.42,368.67 648.45,372.37 647.62,374.18 C646.74,375.97 644.26,377.83 642.50,378.20 C641.71,378.33 639.12,377.51 638.42,377.05 C636.17,375.49 633.19,370.23 632.85,367.40 C632.64,365.15 634.11,358.34 635.58,357.30 C636.75,356.54 639.11,357.37 640.56,358.93 C641.59,360.09 643.36,365.74 643.31,367.45 C643.19,369.48 642.19,372.75 641.18,373.69 C640.06,374.66 637.04,374.41 635.57,373.28 C634.24,372.18 633.04,369.13 633.07,367.11 C633.15,365.12 634.09,361.94 634.98,360.47 C636.70,357.76 638.84,356.98 640.41,356.95 C641.59,357.84 642.34,359.11 642.11,360.58 C641.89,361.87 640.35,365.54 639.66,366.38 C638.85,367.34 637.46,367.64 635.98,367.49 C635.16,366.30 634.85,364.41 635.43,362.40 C636.00,360.42 637.31,359.21 638.91,358.73 C638.91,358.73 643.72,362.15 643.72,362.15" fill="none" stroke="rgb(25, 25, 25)" stroke-width="10.00" stroke-opacity="1.00" stroke-linejoin="round"/>
<path d="M629.39,372.10 C630.28,373.33 630.86,374.16 631.12,374.57 C632.66,376.94 635.75,379.98 636.90,379.91 C637.14,379.89 637.58,379.75 638.20,379.47 C638.20,379.47 639.42,381.09 639.42,381.09 C639.42,381.09 638.27,379.44 638.27,379.44" fill="none" stroke="rgb(25, 25, 25)" stroke-width="10.00" stroke-opacity="1.00" stroke-linejoin="round"/>
<path d="M612.35,329.85 C612.66,329.01 613.14,327.97 613.94,327.85 C614.42,327.77 615.69,327.81 617.77,327.95 C617.77,327.95 609.44,329.55 609.44,329.55 C609.44,329.55 613.74,327.68 613.74,327.68" fill="none" stroke="rgb(25, 25, 25)" stroke-width="10.00" stroke-opacity="1.00" stroke-linejoin="round"/>
<path d="M676.51,328.82 C676.51,328.82 673.61,329.13 673.61,329.13 C673.61,329.13 681.88,330.96 681.88,330.96 C681.88,330.96 675.71,328.41 675.71,328.41 C675.71,328.41 676.96,329.39 676.96,329.39" fill="none" stroke="rgb(25, 25, 25)" stroke-width="10.00" stroke-opacity="1.00" stroke-linejoin="round"/>
<path d="M633.77,408.21 C634.19,408.89 635.56,410.82 636.43,411.81 C639.00,414.70 643.92,416.63 646.81,416.94 C649.44,417.17 653.87,416.22 655.83,415.07 C657.95,413.80 659.81,412.09 660.28,410.95 C660.37,410.72 660.49,410.27 660.65,409.61" fill="none" stroke="rgb(25, 25, 25)" stroke-width="10.00" stroke-opacity="1.00" stroke-linejoin="round"/>
</g>
</svg>
