<?xml version="1.0" encoding="UTF-8" standalone="no"?>
<!DOCTYPE svg PUBLIC "-//W3C//DTD SVG 1.1//EN" "http://www.w3.org/Graphics/SVG/1.1/DTD/svg11.dtd">
<svg width="65.52" height="71.28" viewBox="0.00 0.00 273.00 297.00" xmlns="http://www.w3.org/2000/svg" xmlns:xlink="http://www.w3.org/1999/xlink">
<g stroke-linecap="round" transform="translate(-505.00, -206.00)" id="레이어_5_복사">
<path d="M546.97,239.66 C546.97,239.66 544.94,239.18 544.94,239.18 C543.11,240.93 541.38,243.05 540.77,244.63 C540.50,245.33 537.24,257.78 535.82,265.88 C534.76,272.33 539.56,284.82 540.08,286.04 C540.93,287.97 545.61,291.85 547.01,294.09 C547.85,295.46 549.64,300.09 549.81,300.47 C550.25,293.34 551.29,279.56 551.89,272.91 C552.38,266.07 555.44,253.51 556.81,247.25 C557.11,246.15 557.67,244.58 558.19,244.12 C559.60,242.91 566.04,239.69 566.78,239.55 C567.61,239.41 572.94,242.04 574.40,243.14 C574.98,243.59 580.14,248.26 582.23,249.90 C584.50,252.04 585.92,255.63 586.34,256.65 C586.34,256.65 591.95,257.99 591.95,257.99 C591.95,257.99 573.46,264.20 573.46,264.20 C575.26,266.76 585.49,283.27 589.62,288.41 C591.38,290.58 600.53,302.48 603.03,304.93 C602.92,301.87 602.69,295.19 603.48,291.97 C603.97,290.13 605.61,288.19 607.65,286.81 C612.44,283.72 627.95,278.29 635.06,276.88 C638.14,276.29 649.95,276.14 651.33,276.13 C651.33,276.13 632.12,272.48 632.12,272.48 C636.67,271.87 649.02,273.64 659.65,274.58 C664.97,275.12 668.16,275.75 669.81,276.61 C669.05,276.88 652.18,274.54 644.58,273.50 C633.89,272.23 621.98,271.81 619.71,271.74 C619.77,271.74 635.06,276.93 644.37,279.11 C649.05,280.22 665.20,284.93 671.41,286.94 C683.12,290.92 690.76,293.15 694.67,292.09 C695.51,291.84 701.15,289.23 703.68,287.52 C705.38,286.35 706.91,284.49 707.95,282.41 C709.77,278.66 711.32,269.93 710.76,268.55 C710.07,267.01 703.27,263.06 703.16,263.04 C703.03,263.02 700.77,263.34 698.41,263.61 C698.36,262.02 698.19,258.97 698.33,258.42 C698.69,257.10 702.45,253.31 704.94,250.51 C707.91,247.20 717.01,240.61 719.56,239.38 C721.08,238.69 728.70,237.63 731.31,238.20 C733.93,238.80 738.82,242.43 739.58,244.15 C740.99,247.47 743.35,254.30 743.64,255.83 C743.97,257.58 744.30,265.41 743.99,266.51 C743.29,268.92 738.80,275.68 738.32,276.47 C737.83,277.31 734.89,283.04 732.73,285.69 C729.03,290.28 724.15,296.36 723.89,297.00 C726.04,297.12 727.35,297.01 728.41,296.40 C730.51,295.17 736.79,289.01 737.94,287.99 C741.36,284.96 745.09,282.66 745.96,282.98 C745.22,285.26 739.01,292.40 737.89,293.67 C735.15,296.74 730.17,299.44 728.84,300.28 C726.26,301.93 721.65,306.37 721.46,306.49 C720.62,307.01 698.55,316.54 697.10,317.07 C693.95,318.20 673.23,319.51 672.79,319.55 C670.41,319.76 649.76,322.40 640.60,323.58 C629.36,325.09 620.34,327.55 613.46,329.19 C608.83,330.30 606.47,331.11 603.36,332.86 C601.74,333.78 601.05,334.21 601.08,334.27 C603.80,334.27 607.46,333.65 610.41,332.61 C617.28,330.14 630.66,322.60 636.33,318.73 C638.25,317.41 647.51,309.75 651.26,305.43 C650.96,304.35 649.58,303.60 647.00,303.29 C644.53,303.00 625.57,305.19 620.62,306.27 C617.87,306.88 596.48,313.02 594.44,313.70 C589.52,315.36 583.93,318.29 582.60,319.41 C581.14,320.67 579.62,322.68 579.58,323.54 C579.61,325.55 582.05,327.31 584.29,328.48 C584.27,328.54 581.94,331.56 580.65,335.45 C580.60,335.59 579.26,340.99 578.75,342.12 C578.28,343.13 576.56,345.24 575.72,345.98 C574.69,346.83 572.60,347.38 571.16,347.14 C570.07,346.94 564.30,343.30 563.53,341.77 C562.78,340.14 564.21,335.63 566.74,329.79 C567.27,328.58 567.82,327.28 567.81,327.30 C562.05,346.02 557.97,363.06 555.73,367.27 C553.44,371.50 544.88,382.14 543.44,384.74 C541.00,389.27 538.25,402.29 538.03,406.28 C537.60,413.18 536.72,427.37 537.79,430.70 C539.73,436.50 543.94,443.06 550.51,451.64 C552.14,453.72 555.35,456.28 558.62,457.90 C562.60,459.83 577.42,462.37 582.91,464.09 C588.87,465.70 601.97,469.48 605.02,469.67 C608.91,469.90 621.79,472.64 627.75,472.62 C628.52,472.61 644.86,472.50 653.55,471.44 C659.54,470.63 677.67,467.99 677.90,467.99 C685.65,468.03 702.76,465.10 705.36,464.47 C709.01,463.78 718.47,460.59 724.18,457.23 C728.04,454.94 734.86,451.41 736.49,450.69 C740.24,449.07 742.20,447.31 743.80,444.46 C744.58,443.03 747.53,436.13 747.58,435.98 C748.86,431.97 748.91,403.03 748.67,402.02 C748.49,401.27 744.74,393.18 744.07,390.65 C743.29,387.70 741.58,383.31 740.55,381.76 C739.51,380.22 734.73,374.56 733.84,373.31 C730.39,367.64 723.08,356.48 721.70,351.93 C720.69,348.51 720.21,339.43 719.31,337.30 C719.07,336.74 718.50,335.76 717.62,334.38 C717.64,334.58 708.66,350.62 706.44,357.95 C704.48,364.51 702.11,374.78 700.46,385.03 C698.70,396.78 696.56,421.53 695.80,426.22 C695.38,428.61 694.50,430.96 693.48,432.06 C691.63,433.96 686.67,435.58 681.85,436.51 C675.47,437.64 654.83,438.64 651.42,438.62 C646.87,438.59 632.59,436.40 626.19,434.18 C623.35,433.17 618.37,430.63 615.54,428.52 C609.33,423.86 602.15,415.93 596.76,408.10 C594.87,405.34 593.78,402.55 593.52,399.72 C593.31,396.79 594.75,391.66 596.24,388.59 C599.14,382.71 606.95,371.48 610.78,367.51 C613.27,364.96 627.44,353.63 629.76,352.12 C632.84,350.15 638.29,348.09 641.03,347.12 C647.69,344.84 654.08,345.30 654.03,345.38 C644.73,346.80 635.93,349.01 626.29,352.36 C618.79,355.01 607.30,360.36 601.42,363.42 C596.36,366.07 584.88,374.00 581.60,378.03 C579.28,380.96 576.69,387.00 575.93,390.69 C575.44,393.19 575.24,398.69 575.27,402.95 C575.33,406.13 576.43,412.78 577.57,415.82 C578.81,418.97 583.62,425.51 586.13,427.63 C588.20,429.33 596.50,434.10 598.81,434.93 C601.50,435.87 607.34,436.58 611.90,436.15 C617.52,435.57 629.31,431.40 635.02,428.58 C639.45,426.38 653.23,417.53 657.01,414.36 C661.63,410.46 670.33,401.44 673.37,397.01 C675.59,393.74 677.68,389.51 678.99,385.64 C680.31,381.64 681.73,375.41 681.87,372.42 C681.97,369.62 681.93,365.36 681.78,361.26 C681.65,358.44 680.76,354.60 679.62,352.15 C678.51,349.86 675.52,347.01 673.79,346.29 C671.89,345.53 664.83,345.05 662.35,345.23 C659.54,345.49 654.50,347.29 651.75,349.17 C647.46,352.20 642.35,357.98 639.77,362.93 C636.95,368.42 633.42,378.83 633.21,383.30 C633.14,385.14 633.88,388.66 634.71,390.60 C636.15,393.82 641.07,398.43 643.14,399.20 C645.31,399.96 654.31,400.21 656.62,399.42 C659.63,398.35 671.87,388.10 677.06,382.05 C680.65,377.83 685.85,367.95 687.12,362.73 C687.52,361.09 687.48,359.70 687.05,357.43 C687.05,357.43 684.64,356.16 684.64,356.16 C681.20,358.30 678.77,360.41 677.57,362.78 C676.23,365.52 674.64,369.96 674.16,372.08 C673.44,375.44 674.13,381.69 674.68,384.18 C675.42,387.32 677.62,392.17 679.55,394.80 C681.33,397.17 685.06,400.68 687.01,401.88 C689.19,403.16 694.38,404.76 696.64,404.83 C701.13,404.92 710.09,402.98 714.87,400.84 C716.24,400.22 718.90,399.00 720.21,398.39 C720.59,398.68 720.52,399.34 719.80,401.02 C717.15,407.08 707.04,423.89 706.42,424.98 C704.75,427.92 702.01,434.40 702.01,434.99 C702.02,435.36 702.20,436.05 702.56,437.07 C705.69,437.19 707.61,437.08 709.16,436.50 C712.12,435.38 717.45,432.49 719.84,431.17 C719.84,431.17 717.07,432.96 717.07,432.96" fill="none" stroke="rgb(245, 143, 80)" stroke-width="42.42" stroke-opacity="1.00" stroke-linejoin="round"/>
</g>
<g stroke-linecap="round" transform="translate(-508.00, 62.00)" id="레이어_2_복사_2">
<path d="M606.34,-8.70 C606.01,-8.47 605.69,-8.24 605.36,-8.01 C602.53,-6.02 597.10,-2.22 593.23,0.97 C585.78,7.25 575.89,16.21 570.79,22.15 C566.79,26.96 558.64,38.92 555.22,45.28 C552.19,50.96 549.11,59.43 547.16,63.92 C544.33,70.27 536.17,88.56 535.39,89.99 C531.24,97.78 525.38,110.64 521.73,119.95 C518.69,127.92 515.63,140.57 515.35,146.41 C515.04,153.42 517.01,168.55 519.37,175.43 C520.46,178.58 523.75,184.97 525.75,187.79 C529.84,193.50 542.86,206.07 547.44,209.59 C550.55,211.92 555.56,214.75 558.64,215.98 C564.76,218.36 582.04,223.36 587.86,224.78 C595.16,226.40 606.18,228.08 610.43,228.58" fill="none" stroke="rgb(245, 143, 80)" stroke-width="15.00" stroke-opacity="1.00" stroke-linejoin="round"/>
<path d="M605.20,222.58 C609.09,224.47 613.02,226.08 616.65,226.47 C623.80,227.19 632.54,226.49 644.64,224.84 C652.23,223.81 665.12,222.13 671.91,221.63 C675.79,221.30 682.91,220.69 686.14,220.40" fill="none" stroke="rgb(245, 143, 80)" stroke-width="15.00" stroke-opacity="1.00" stroke-linejoin="round"/>
<path d="M688.85,220.08 C691.70,220.71 697.50,221.26 699.72,221.23 C702.94,221.17 710.57,220.13 714.14,219.15 C721.40,217.13 734.90,211.12 741.11,207.05 C746.74,203.33 756.95,193.68 761.26,187.98 C764.51,183.65 770.48,173.22 771.14,170.97 C771.51,169.66 772.05,166.38 772.35,164.17" fill="none" stroke="rgb(245, 143, 80)" stroke-width="15.00" stroke-opacity="1.00" stroke-linejoin="round"/>
<path d="M682.82,-10.65 C690.17,-6.74 697.84,-0.67 704.17,5.60 C710.14,11.59 715.83,19.06 722.25,28.31 C730.64,40.79 738.73,57.73 739.59,59.85 C741.06,63.53 741.60,64.39 744.79,68.05 C749.66,73.63 757.30,85.32 761.03,92.51 C763.47,97.22 769.53,111.77 770.82,117.95 C771.15,119.52 772.73,129.45 773.35,133.53 C774.16,138.85 774.34,141.13 773.92,145.09 C773.09,152.68 771.38,159.66 771.15,160.57" fill="none" stroke="rgb(245, 143, 80)" stroke-width="15.00" stroke-opacity="1.00" stroke-linejoin="round"/>
<path d="M616.79,-11.96 C619.99,-14.69 627.38,-18.22 629.44,-18.63 C637.01,-19.83 646.56,-20.47 654.52,-19.61 C658.58,-19.14 664.44,-17.47 667.19,-16.07 C672.15,-13.49 679.76,-6.87 682.02,-4.89" fill="none" stroke="rgb(245, 143, 80)" stroke-width="15.00" stroke-opacity="1.00" stroke-linejoin="round"/>
<path d="M679.27,-11.80 C679.43,-16.64 681.10,-22.89 683.06,-25.73 C684.91,-28.37 690.20,-34.75 691.80,-36.20 C695.27,-39.30 709.89,-46.20 715.41,-47.67 C718.35,-48.44 724.79,-49.54 728.06,-49.64 C731.75,-49.72 737.18,-48.73 741.65,-47.21 C746.46,-45.55 755.65,-39.95 759.02,-36.04 C761.98,-32.55 767.68,-18.76 769.78,-10.81 C770.69,-7.32 771.68,-1.95 771.72,0.94 C771.75,5.93 770.20,18.27 768.31,25.40 C767.10,29.80 764.50,34.88 761.55,38.69 C759.34,41.49 757.15,43.74 756.45,44.40" fill="none" stroke="rgb(245, 143, 80)" stroke-width="15.00" stroke-opacity="1.00" stroke-linejoin="round"/>
<path d="M753.30,48.21 C752.38,49.07 750.08,51.24 748.68,52.55 C745.89,55.14 742.09,58.14 741.58,58.40 C741.39,58.50 741.12,58.57 740.77,58.62" fill="none" stroke="rgb(245, 143, 80)" stroke-width="15.00" stroke-opacity="1.00" stroke-linejoin="round"/>
<path d="M608.69,-26.82 C606.87,-30.55 604.81,-34.15 602.10,-36.87 C596.92,-42.01 586.60,-48.48 580.58,-51.14 C577.49,-52.49 570.80,-54.23 567.88,-54.65 C565.24,-55.01 559.67,-54.50 557.52,-53.96 C554.60,-53.22 548.56,-50.56 544.90,-48.51 C541.30,-46.47 529.85,-35.50 526.90,-30.90 C524.01,-26.30 516.86,-9.91 516.11,-5.88 C515.24,-1.01 515.61,10.91 516.88,17.79 C517.62,21.71 519.07,26.82 520.37,30.05 C521.54,32.91 525.26,39.44 527.60,42.50 C531.96,48.12 540.09,54.14 542.31,55.75" fill="none" stroke="rgb(245, 143, 80)" stroke-width="15.00" stroke-opacity="1.00" stroke-linejoin="round"/>
<path d="M608.06,-27.77 C608.78,-26.99 609.94,-25.60 610.63,-24.59 C611.49,-23.29 613.52,-19.57 614.04,-18.29 C614.49,-17.15 614.85,-15.47 615.06,-14.02 C615.10,-13.76 615.16,-13.37 615.24,-12.87" fill="none" stroke="rgb(245, 143, 80)" stroke-width="15.00" stroke-opacity="1.00" stroke-linejoin="round"/>
</g>
<g stroke-linecap="round" transform="translate(-505.00, -206.00)" id="레이어_3_복사">
<path d="M592.92,333.99 C593.35,333.53 594.62,332.47 595.43,332.10 C596.49,331.63 599.84,331.08 601.08,331.18 C605.00,331.59 610.73,336.23 612.25,337.57 C607.76,336.40 602.09,335.90 597.67,335.86 C597.01,335.86 595.73,335.88 593.83,335.91" fill="none" stroke="rgb(25, 25, 25)" stroke-width="10.00" stroke-opacity="1.00" stroke-linejoin="round"/>
<path d="M672.21,328.75 C672.21,328.75 673.68,327.17 673.68,327.17 C673.24,326.69 669.28,328.16 665.97,331.36 C665.07,332.24 664.60,332.88 664.64,332.98 C665.54,333.01 673.36,331.43 674.19,331.30 C678.64,330.65 680.57,330.95 681.66,331.22 C681.66,331.22 675.29,327.50 675.29,327.50 C675.29,327.50 679.80,326.87 679.80,326.87 C679.54,326.35 680.26,325.66 682.08,326.65 C682.29,326.77 682.64,327.01 683.15,327.35" fill="none" stroke="rgb(25, 25, 25)" stroke-width="10.00" stroke-opacity="1.00" stroke-linejoin="round"/>
<path d="M638.53,351.50 C636.89,350.98 633.97,350.24 632.82,350.43 C630.66,350.82 625.10,355.18 623.31,357.59 C621.22,360.45 618.23,366.76 617.92,369.33 C617.68,371.73 618.39,377.06 619.66,380.14 C620.86,382.94 624.35,387.47 627.00,389.57 C629.87,391.79 632.95,393.00 635.53,393.05 C638.34,393.07 644.14,391.80 646.98,390.04 C649.73,388.30 654.66,383.50 655.77,381.48 C656.74,379.63 657.96,374.39 657.92,371.82 C657.86,369.28 656.77,365.42 655.38,362.97 C653.92,360.45 650.39,356.23 648.30,354.55 C646.92,353.47 642.29,350.41 639.49,349.10 C637.45,348.19 636.02,348.38 634.05,349.77 C633.44,350.21 632.70,350.74 631.82,351.35" fill="none" stroke="rgb(25, 25, 25)" stroke-width="10.00" stroke-opacity="1.00" stroke-linejoin="round"/>
<path d="M638.30,353.86 C636.29,354.07 631.86,356.96 630.01,359.51 C627.78,362.67 624.48,368.85 623.63,372.03 C623.11,374.09 623.57,379.56 624.23,381.06 C625.06,382.83 629.16,385.98 630.51,386.16 C632.23,386.36 634.62,385.88 635.82,385.11 C638.10,383.57 641.22,380.03 642.30,377.91 C643.00,376.48 644.57,371.28 643.71,368.33 C643.20,366.72 641.06,364.65 639.67,364.32 C638.29,364.04 636.19,364.35 635.10,364.92 C632.87,366.18 629.79,369.43 629.02,371.82 C628.65,373.06 628.44,374.75 628.39,376.58 C628.39,378.00 629.15,380.73 629.99,382.28 C630.89,383.86 635.67,386.49 637.14,386.15 C638.77,385.73 640.99,384.24 641.97,382.92 C643.78,380.37 645.32,376.29 645.33,373.84 C645.31,372.72 644.67,369.21 644.18,367.85 C643.64,366.44 641.59,364.47 640.34,364.08 C638.80,363.69 636.40,364.98 635.46,366.80 C634.58,368.67 634.55,372.37 635.38,374.18 C636.26,375.97 638.74,377.83 640.50,378.20 C641.29,378.33 643.88,377.51 644.58,377.05 C646.83,375.49 649.81,370.23 650.15,367.40 C650.36,365.15 648.89,358.34 647.42,357.30 C646.25,356.54 643.89,357.37 642.44,358.93 C641.41,360.09 639.64,365.74 639.69,367.45 C639.81,369.48 640.81,372.75 641.82,373.69 C642.94,374.66 645.96,374.41 647.43,373.28 C648.76,372.18 649.96,369.13 649.93,367.11 C649.85,365.12 648.91,361.94 648.02,360.47 C646.30,357.76 644.16,356.98 642.59,356.95 C641.41,357.84 640.66,359.11 640.89,360.58 C641.11,361.87 642.65,365.54 643.34,366.38 C644.15,367.34 645.54,367.64 647.02,367.49 C647.84,366.30 648.15,364.41 647.57,362.40 C647.00,360.42 645.69,359.21 644.09,358.73 C644.09,358.73 639.28,362.15 639.28,362.15" fill="none" stroke="rgb(25, 25, 25)" stroke-width="10.00" stroke-opacity="1.00" stroke-linejoin="round"/>
<path d="M653.61,372.10 C652.72,373.33 652.14,374.16 651.88,374.57 C650.34,376.94 647.25,379.98 646.10,379.91 C645.86,379.89 645.42,379.75 644.80,379.47 C644.80,379.47 643.58,381.09 643.58,381.09 C643.58,381.09 644.73,379.44 644.73,379.44" fill="none" stroke="rgb(25, 25, 25)" stroke-width="10.00" stroke-opacity="1.00" stroke-linejoin="round"/>
<path d="M607.39,391.60 C607.41,391.60 604.55,393.77 604.68,397.61 C604.78,399.72 607.98,404.40 609.78,405.73 C611.83,407.17 616.96,409.02 620.22,409.22 C627.12,409.56 636.09,406.01 638.52,404.50 C640.36,403.30 643.31,397.86 644.04,396.42" fill="none" stroke="rgb(25, 25, 25)" stroke-width="10.00" stroke-opacity="1.00" stroke-linejoin="round"/>
<path d="M643.87,399.93 C644.61,400.83 646.37,402.43 647.90,403.53 C648.71,404.10 652.97,405.37 657.97,406.70 C662.15,407.80 664.88,408.28 667.28,407.79 C669.86,407.20 673.68,404.10 676.40,401.01 C678.37,398.75 683.59,392.01 684.57,390.01 C684.79,389.56 685.00,388.92 685.20,388.09" fill="none" stroke="rgb(25, 25, 25)" stroke-width="10.00" stroke-opacity="1.00" stroke-linejoin="round"/>
<path d="M685.38,388.33 C685.38,388.33 686.25,387.75 686.25,387.75" fill="none" stroke="rgb(25, 25, 25)" stroke-width="10.00" stroke-opacity="1.00" stroke-linejoin="round"/>
<path d="M605.14,393.24 C604.84,393.61 604.08,394.40 603.60,394.76 C602.65,395.45 597.70,396.10 595.45,395.77 C594.81,395.67 593.48,395.08 592.85,394.72 C592.20,394.33 591.44,393.77 590.88,393.31" fill="none" stroke="rgb(25, 25, 25)" stroke-width="10.00" stroke-opacity="1.00" stroke-linejoin="round"/>
<path d="M680.69,385.85 C680.96,385.91 682.72,386.58 684.02,387.08 C685.77,387.68 689.19,387.76 692.33,386.97 C694.78,386.31 696.93,385.22 699.29,383.92" fill="none" stroke="rgb(25, 25, 25)" stroke-width="10.00" stroke-opacity="1.00" stroke-linejoin="round"/>
<path d="M625.47,411.84 C626.51,413.75 627.18,414.84 628.26,416.29 C630.97,419.94 634.31,423.81 636.17,425.47 C638.59,427.56 643.91,429.80 647.21,430.19 C649.98,430.48 655.81,429.04 658.88,427.61 C661.28,426.45 664.27,423.41 665.69,421.00 C666.57,419.41 667.10,414.17 667.03,412.67 C667.00,412.23 666.91,411.49 666.75,410.46" fill="none" stroke="rgb(25, 25, 25)" stroke-width="10.00" stroke-opacity="1.00" stroke-linejoin="round"/>
</g>
</svg>
